<?xml version="1.0" encoding="UTF-8"?>
<svg xmlns="http://www.w3.org/2000/svg" width="893.04" height="805.06" xmlns:xlink="http://www.w3.org/1999/xlink" viewBox="0 0 893.04 805.06">
  <defs>
    <style>
      .uuid-c86cd4e3-65db-48e4-aa15-e30aa396acdd, .uuid-1b7226eb-0532-492d-a20a-8cd183009277, .uuid-01a2b0c4-c253-4756-863c-9b2537f515e6, .uuid-51a840ca-3379-486a-bf3e-d8edd18550ff, .uuid-45d89f9b-8040-4315-9295-52c79048b9d4, .uuid-b2da6358-8e35-4370-b4ac-6d94b9e1c9f9, .uuid-03973505-b637-4a11-8180-152e90dfb953, .uuid-55ec5688-57da-412c-928d-01be98d0281a, .uuid-f521dc4a-9a61-41bf-9bb2-a70426667c44, .uuid-4c153a56-73b6-4408-bba8-15cc6903a602, .uuid-2ad21900-97ff-481e-b993-914528432e06 {
        fill: none;
      }

      .uuid-1b7226eb-0532-492d-a20a-8cd183009277 {
        stroke-width: 3.05px;
      }

      .uuid-1b7226eb-0532-492d-a20a-8cd183009277, .uuid-51a840ca-3379-486a-bf3e-d8edd18550ff, .uuid-c424ff86-8398-4f8e-96b8-8b460869292d, .uuid-45d89f9b-8040-4315-9295-52c79048b9d4, .uuid-b2da6358-8e35-4370-b4ac-6d94b9e1c9f9, .uuid-03973505-b637-4a11-8180-152e90dfb953, .uuid-2ad21900-97ff-481e-b993-914528432e06 {
        stroke-miterlimit: 10;
      }

      .uuid-1b7226eb-0532-492d-a20a-8cd183009277, .uuid-51a840ca-3379-486a-bf3e-d8edd18550ff, .uuid-c424ff86-8398-4f8e-96b8-8b460869292d, .uuid-b2da6358-8e35-4370-b4ac-6d94b9e1c9f9, .uuid-2ad21900-97ff-481e-b993-914528432e06 {
        stroke: #e00;
      }

      .uuid-01a2b0c4-c253-4756-863c-9b2537f515e6 {
        stroke-dasharray: 0 0 0 10.16;
        stroke-width: 3.05px;
      }

      .uuid-01a2b0c4-c253-4756-863c-9b2537f515e6, .uuid-03973505-b637-4a11-8180-152e90dfb953 {
        stroke: #fe0000;
      }

      .uuid-01a2b0c4-c253-4756-863c-9b2537f515e6, .uuid-55ec5688-57da-412c-928d-01be98d0281a, .uuid-f521dc4a-9a61-41bf-9bb2-a70426667c44, .uuid-4c153a56-73b6-4408-bba8-15cc6903a602 {
        stroke-linecap: round;
        stroke-linejoin: round;
      }

      .uuid-51a840ca-3379-486a-bf3e-d8edd18550ff {
        stroke-width: 3.85px;
      }

      .uuid-b4dc5b13-460c-4d40-bb82-6480ade23796 {
        fill: #f3f3f3;
      }

      .uuid-651e83ce-0fd3-440d-84ec-5875f8e4b0cb {
        fill: #f56d6d;
      }

      .uuid-c4b50436-3d38-40c6-98bf-082d336573a9 {
        fill: #fab6b6;
      }

      .uuid-e7d3855e-546d-4177-9f71-46fc745c90a8 {
        fill: #fe0000;
      }

      .uuid-752e57d1-5a0e-43ac-9060-37870c6f6068 {
        fill: #e00;
      }

      .uuid-8fce3db1-2131-4fb2-b6c8-5e74c8296149 {
        fill: #fff;
      }

      .uuid-b7ac5aa1-ec67-4d23-aa94-24e5d8798fa9 {
        fill: #fddbdb;
      }

      .uuid-b9354b9c-79f6-44ce-bfc2-4cab95a70578, .uuid-91e63d09-61ea-4114-91e0-f13c5b57ab2d {
        fill: #dedede;
      }

      .uuid-e9503745-0e81-4260-adee-e8a203fd70f4 {
        clip-path: url(#uuid-97739f7f-a27a-45ec-8d44-eb7913b1d3d6);
      }

      .uuid-91e63d09-61ea-4114-91e0-f13c5b57ab2d {
        mix-blend-mode: multiply;
      }

      .uuid-c424ff86-8398-4f8e-96b8-8b460869292d {
        stroke-width: 3.21px;
      }

      .uuid-1836850a-9cb0-481f-9bb1-e72811f616fe {
        clip-path: url(#uuid-b4848e3a-f4b3-4b62-97ba-9fc9df59c1b7);
      }

      .uuid-45d89f9b-8040-4315-9295-52c79048b9d4 {
        stroke: #dedede;
      }

      .uuid-45d89f9b-8040-4315-9295-52c79048b9d4, .uuid-b2da6358-8e35-4370-b4ac-6d94b9e1c9f9, .uuid-03973505-b637-4a11-8180-152e90dfb953 {
        stroke-width: 2.68px;
      }

      .uuid-55ec5688-57da-412c-928d-01be98d0281a {
        stroke-width: 2.73px;
      }

      .uuid-55ec5688-57da-412c-928d-01be98d0281a, .uuid-f521dc4a-9a61-41bf-9bb2-a70426667c44, .uuid-4c153a56-73b6-4408-bba8-15cc6903a602 {
        stroke: #fff;
      }

      .uuid-f521dc4a-9a61-41bf-9bb2-a70426667c44 {
        stroke-width: .97px;
      }

      .uuid-995e037e-56a6-41bd-b60a-65bfeabb0d3a {
        isolation: isolate;
      }

      .uuid-4c153a56-73b6-4408-bba8-15cc6903a602 {
        stroke-width: 3.56px;
      }

      .uuid-2ad21900-97ff-481e-b993-914528432e06 {
        stroke-width: .95px;
      }
    </style>
    <clipPath id="uuid-97739f7f-a27a-45ec-8d44-eb7913b1d3d6">
      <polygon class="uuid-c86cd4e3-65db-48e4-aa15-e30aa396acdd" points="669.78 31.67 223.26 31.67 0 418.37 223.26 805.06 669.78 805.06 893.04 418.37 669.78 31.67"/>
    </clipPath>
    <clipPath id="uuid-b4848e3a-f4b3-4b62-97ba-9fc9df59c1b7">
      <polygon class="uuid-c86cd4e3-65db-48e4-aa15-e30aa396acdd" points="669.78 31.67 223.26 31.67 0 418.37 223.26 805.06 669.78 805.06 893.04 418.37 669.78 31.67"/>
    </clipPath>
  </defs>
  <g class="uuid-995e037e-56a6-41bd-b60a-65bfeabb0d3a">
    <g id="uuid-d3ae4de3-3e18-491c-b802-e1f4c00e5842" data-name="Layer 1"/>
    <g id="uuid-79711d06-d35e-45dc-89c0-7977839069eb" data-name="Layer 2">
      <g id="uuid-2263447c-b9d6-49be-9a4c-709ee3c8d821" data-name="Art">
        <g>
          <g class="uuid-e9503745-0e81-4260-adee-e8a203fd70f4">
            <polygon class="uuid-b4dc5b13-460c-4d40-bb82-6480ade23796" points="669.78 31.67 223.26 31.67 0 418.37 223.26 805.06 669.78 805.06 893.04 418.37 669.78 31.67"/>
            <polygon class="uuid-b4dc5b13-460c-4d40-bb82-6480ade23796" points="675.37 393.54 680.58 393.54 683.18 389.03 680.58 384.51 675.37 384.51 672.76 389.03 675.37 393.54"/>
            <path class="uuid-51a840ca-3379-486a-bf3e-d8edd18550ff" d="M226.29,478.06H67.37c-9.52,0-17.23-7.71-17.23-17.23V224.93c0-9.77,7.92-17.68,17.68-17.68H458.99c9.52,0,17.23-7.71,17.23-17.23v-21.36"/>
            <rect class="uuid-651e83ce-0fd3-440d-84ec-5875f8e4b0cb" x="-31.07" y="679.87" width="963.46" height="186.75"/>
            <path class="uuid-51a840ca-3379-486a-bf3e-d8edd18550ff" d="M677.73,554.01h103.15c8.8,0,15.93-7.13,15.93-15.93l1.6-114.92"/>
          </g>
          <g class="uuid-1836850a-9cb0-481f-9bb1-e72811f616fe">
            <polygon class="uuid-b4dc5b13-460c-4d40-bb82-6480ade23796" points="669.78 31.67 223.26 31.67 0 418.37 223.26 805.06 669.78 805.06 893.04 418.37 669.78 31.67"/>
            <g>
              <rect class="uuid-651e83ce-0fd3-440d-84ec-5875f8e4b0cb" x="700.31" y="144.27" width="164.67" height="12.73"/>
              <g>
                <rect class="uuid-8fce3db1-2131-4fb2-b6c8-5e74c8296149" x="715.92" y="15.16" width="132.26" height="119.29"/>
                <rect class="uuid-e7d3855e-546d-4177-9f71-46fc745c90a8" x="716.85" y="1.34" width="131.33" height="22.16"/>
                <line class="uuid-55ec5688-57da-412c-928d-01be98d0281a" x1="728.48" y1="12.42" x2="801.65" y2="12.42"/>
                <circle class="uuid-8fce3db1-2131-4fb2-b6c8-5e74c8296149" cx="826.96" cy="12.42" r="2.75"/>
                <circle class="uuid-8fce3db1-2131-4fb2-b6c8-5e74c8296149" cx="835.21" cy="12.42" r="2.75"/>
                <polygon class="uuid-45d89f9b-8040-4315-9295-52c79048b9d4" points="848.18 72.65 848.18 1.34 716.85 1.34 716.85 134.46 763.5 134.46 848.18 134.46 848.18 72.65"/>
              </g>
            </g>
            <g>
              <rect class="uuid-651e83ce-0fd3-440d-84ec-5875f8e4b0cb" x="477.51" y="144.27" width="164.67" height="12.73"/>
              <g>
                <rect class="uuid-8fce3db1-2131-4fb2-b6c8-5e74c8296149" x="493.12" y="15.16" width="132.26" height="119.29"/>
                <rect class="uuid-e7d3855e-546d-4177-9f71-46fc745c90a8" x="494.05" y="1.34" width="131.33" height="22.16"/>
                <line class="uuid-55ec5688-57da-412c-928d-01be98d0281a" x1="505.68" y1="12.42" x2="578.85" y2="12.42"/>
                <circle class="uuid-8fce3db1-2131-4fb2-b6c8-5e74c8296149" cx="604.16" cy="12.42" r="2.75"/>
                <circle class="uuid-8fce3db1-2131-4fb2-b6c8-5e74c8296149" cx="612.41" cy="12.42" r="2.75"/>
                <polygon class="uuid-45d89f9b-8040-4315-9295-52c79048b9d4" points="625.38 72.65 625.38 1.34 494.05 1.34 494.05 134.46 540.7 134.46 625.38 134.46 625.38 72.65"/>
              </g>
            </g>
            <g>
              <rect class="uuid-651e83ce-0fd3-440d-84ec-5875f8e4b0cb" x="31.91" y="144.27" width="164.67" height="12.73"/>
              <g>
                <rect class="uuid-8fce3db1-2131-4fb2-b6c8-5e74c8296149" x="47.52" y="15.16" width="132.26" height="119.29"/>
                <rect class="uuid-e7d3855e-546d-4177-9f71-46fc745c90a8" x="48.44" y="1.34" width="131.33" height="22.16"/>
                <line class="uuid-55ec5688-57da-412c-928d-01be98d0281a" x1="60.08" y1="12.42" x2="133.25" y2="12.42"/>
                <circle class="uuid-8fce3db1-2131-4fb2-b6c8-5e74c8296149" cx="158.56" cy="12.42" r="2.75"/>
                <circle class="uuid-8fce3db1-2131-4fb2-b6c8-5e74c8296149" cx="166.8" cy="12.42" r="2.75"/>
                <polygon class="uuid-45d89f9b-8040-4315-9295-52c79048b9d4" points="179.78 72.65 179.78 1.34 48.44 1.34 48.44 134.46 95.1 134.46 179.78 134.46 179.78 72.65"/>
              </g>
            </g>
            <g>
              <rect class="uuid-651e83ce-0fd3-440d-84ec-5875f8e4b0cb" x="477.51" y="341.6" width="164.67" height="12.73"/>
              <g>
                <rect class="uuid-8fce3db1-2131-4fb2-b6c8-5e74c8296149" x="493.12" y="212.5" width="132.26" height="119.29"/>
                <rect class="uuid-b9354b9c-79f6-44ce-bfc2-4cab95a70578" x="494.05" y="198.67" width="131.33" height="22.16"/>
                <line class="uuid-55ec5688-57da-412c-928d-01be98d0281a" x1="505.68" y1="209.75" x2="578.85" y2="209.75"/>
                <circle class="uuid-8fce3db1-2131-4fb2-b6c8-5e74c8296149" cx="604.16" cy="209.75" r="2.75"/>
                <circle class="uuid-8fce3db1-2131-4fb2-b6c8-5e74c8296149" cx="612.41" cy="209.75" r="2.75"/>
                <polygon class="uuid-45d89f9b-8040-4315-9295-52c79048b9d4" points="625.38 269.98 625.38 198.67 494.05 198.67 494.05 331.79 540.7 331.79 625.38 331.79 625.38 269.98"/>
              </g>
            </g>
            <g>
              <rect class="uuid-651e83ce-0fd3-440d-84ec-5875f8e4b0cb" x="254.71" y="341.6" width="164.67" height="12.73"/>
              <g>
                <rect class="uuid-8fce3db1-2131-4fb2-b6c8-5e74c8296149" x="270.32" y="212.5" width="132.26" height="119.29"/>
                <rect class="uuid-b9354b9c-79f6-44ce-bfc2-4cab95a70578" x="271.24" y="198.67" width="131.33" height="22.16"/>
                <line class="uuid-55ec5688-57da-412c-928d-01be98d0281a" x1="282.88" y1="209.75" x2="356.05" y2="209.75"/>
                <circle class="uuid-8fce3db1-2131-4fb2-b6c8-5e74c8296149" cx="381.36" cy="209.75" r="2.75"/>
                <circle class="uuid-8fce3db1-2131-4fb2-b6c8-5e74c8296149" cx="389.6" cy="209.75" r="2.75"/>
                <polygon class="uuid-45d89f9b-8040-4315-9295-52c79048b9d4" points="402.58 269.98 402.58 198.67 271.24 198.67 271.24 331.79 317.9 331.79 402.58 331.79 402.58 269.98"/>
              </g>
            </g>
            <g>
              <rect class="uuid-651e83ce-0fd3-440d-84ec-5875f8e4b0cb" x="31.91" y="341.6" width="164.67" height="12.73"/>
              <g>
                <rect class="uuid-8fce3db1-2131-4fb2-b6c8-5e74c8296149" x="47.52" y="212.5" width="132.26" height="119.29"/>
                <rect class="uuid-b9354b9c-79f6-44ce-bfc2-4cab95a70578" x="48.44" y="198.67" width="131.33" height="22.16"/>
                <line class="uuid-55ec5688-57da-412c-928d-01be98d0281a" x1="60.08" y1="209.75" x2="133.25" y2="209.75"/>
                <circle class="uuid-8fce3db1-2131-4fb2-b6c8-5e74c8296149" cx="158.56" cy="209.75" r="2.75"/>
                <circle class="uuid-8fce3db1-2131-4fb2-b6c8-5e74c8296149" cx="166.8" cy="209.75" r="2.75"/>
                <polygon class="uuid-45d89f9b-8040-4315-9295-52c79048b9d4" points="179.78 269.98 179.78 198.67 48.44 198.67 48.44 331.79 95.1 331.79 179.78 331.79 179.78 269.98"/>
              </g>
            </g>
            <g>
              <rect class="uuid-651e83ce-0fd3-440d-84ec-5875f8e4b0cb" x="700.31" y="565.32" width="164.67" height="12.73"/>
              <g>
                <rect class="uuid-8fce3db1-2131-4fb2-b6c8-5e74c8296149" x="715.92" y="436.21" width="132.26" height="119.29"/>
                <rect class="uuid-b9354b9c-79f6-44ce-bfc2-4cab95a70578" x="716.85" y="422.39" width="131.33" height="22.16"/>
                <line class="uuid-55ec5688-57da-412c-928d-01be98d0281a" x1="728.48" y1="433.46" x2="801.65" y2="433.46"/>
                <circle class="uuid-8fce3db1-2131-4fb2-b6c8-5e74c8296149" cx="826.96" cy="433.46" r="2.75"/>
                <circle class="uuid-8fce3db1-2131-4fb2-b6c8-5e74c8296149" cx="835.21" cy="433.46" r="2.75"/>
                <polygon class="uuid-45d89f9b-8040-4315-9295-52c79048b9d4" points="848.18 493.7 848.18 422.39 716.85 422.39 716.85 555.51 763.5 555.51 848.18 555.51 848.18 493.7"/>
              </g>
            </g>
            <g>
              <rect class="uuid-651e83ce-0fd3-440d-84ec-5875f8e4b0cb" x="31.91" y="565.32" width="164.67" height="12.73"/>
              <g>
                <rect class="uuid-8fce3db1-2131-4fb2-b6c8-5e74c8296149" x="47.52" y="436.21" width="132.26" height="119.29"/>
                <rect class="uuid-b9354b9c-79f6-44ce-bfc2-4cab95a70578" x="48.44" y="422.39" width="131.33" height="22.16"/>
                <line class="uuid-55ec5688-57da-412c-928d-01be98d0281a" x1="60.08" y1="433.46" x2="133.25" y2="433.46"/>
                <circle class="uuid-8fce3db1-2131-4fb2-b6c8-5e74c8296149" cx="158.56" cy="433.46" r="2.75"/>
                <circle class="uuid-8fce3db1-2131-4fb2-b6c8-5e74c8296149" cx="166.8" cy="433.46" r="2.75"/>
                <polygon class="uuid-45d89f9b-8040-4315-9295-52c79048b9d4" points="179.78 493.7 179.78 422.39 48.44 422.39 48.44 555.51 95.1 555.51 179.78 555.51 179.78 493.7"/>
              </g>
            </g>
            <polygon class="uuid-b4dc5b13-460c-4d40-bb82-6480ade23796" points="675.37 393.54 680.58 393.54 683.18 389.03 680.58 384.51 675.37 384.51 672.76 389.03 675.37 393.54"/>
            <rect class="uuid-651e83ce-0fd3-440d-84ec-5875f8e4b0cb" x="-31.07" y="679.87" width="963.46" height="186.75"/>
            <path class="uuid-51a840ca-3379-486a-bf3e-d8edd18550ff" d="M677.73,487.55h88.99c8.8,0,15.93-7.13,15.93-15.93l-.74-117.29"/>
          </g>
          <g>
            <rect class="uuid-752e57d1-5a0e-43ac-9060-37870c6f6068" x="700.31" y="341.6" width="164.67" height="12.73"/>
            <g>
              <rect class="uuid-8fce3db1-2131-4fb2-b6c8-5e74c8296149" x="715.92" y="212.5" width="132.26" height="119.29"/>
              <rect class="uuid-752e57d1-5a0e-43ac-9060-37870c6f6068" x="716.85" y="198.67" width="131.33" height="22.16"/>
              <line class="uuid-55ec5688-57da-412c-928d-01be98d0281a" x1="728.48" y1="209.75" x2="801.65" y2="209.75"/>
              <circle class="uuid-8fce3db1-2131-4fb2-b6c8-5e74c8296149" cx="826.96" cy="209.75" r="2.75"/>
              <circle class="uuid-8fce3db1-2131-4fb2-b6c8-5e74c8296149" cx="835.21" cy="209.75" r="2.75"/>
              <polygon class="uuid-b2da6358-8e35-4370-b4ac-6d94b9e1c9f9" points="848.18 269.98 848.18 198.67 716.85 198.67 716.85 331.79 763.5 331.79 848.18 331.79 848.18 269.98"/>
            </g>
          </g>
          <g>
            <rect class="uuid-752e57d1-5a0e-43ac-9060-37870c6f6068" x="254.71" y="144.27" width="164.67" height="12.73"/>
            <g>
              <rect class="uuid-8fce3db1-2131-4fb2-b6c8-5e74c8296149" x="270.32" y="15.16" width="132.26" height="119.29"/>
              <rect class="uuid-e7d3855e-546d-4177-9f71-46fc745c90a8" x="271.24" y="1.34" width="131.33" height="22.16"/>
              <line class="uuid-55ec5688-57da-412c-928d-01be98d0281a" x1="282.88" y1="12.42" x2="356.05" y2="12.42"/>
              <circle class="uuid-8fce3db1-2131-4fb2-b6c8-5e74c8296149" cx="381.36" cy="12.42" r="2.75"/>
              <circle class="uuid-8fce3db1-2131-4fb2-b6c8-5e74c8296149" cx="389.6" cy="12.42" r="2.75"/>
              <polygon class="uuid-03973505-b637-4a11-8180-152e90dfb953" points="402.58 72.65 402.58 1.34 271.24 1.34 271.24 134.46 317.9 134.46 402.58 134.46 402.58 72.65"/>
            </g>
          </g>
          <g>
            <rect class="uuid-752e57d1-5a0e-43ac-9060-37870c6f6068" x="476.23" y="576.23" width="164.67" height="12.73"/>
            <g>
              <rect class="uuid-8fce3db1-2131-4fb2-b6c8-5e74c8296149" x="491.84" y="447.12" width="132.26" height="119.29"/>
              <rect class="uuid-e7d3855e-546d-4177-9f71-46fc745c90a8" x="492.76" y="433.3" width="131.33" height="22.16"/>
              <line class="uuid-55ec5688-57da-412c-928d-01be98d0281a" x1="504.4" y1="444.38" x2="577.57" y2="444.38"/>
              <circle class="uuid-8fce3db1-2131-4fb2-b6c8-5e74c8296149" cx="602.87" cy="444.38" r="2.75"/>
              <circle class="uuid-8fce3db1-2131-4fb2-b6c8-5e74c8296149" cx="611.12" cy="444.38" r="2.75"/>
              <polygon class="uuid-03973505-b637-4a11-8180-152e90dfb953" points="624.09 504.61 624.09 433.3 492.76 433.3 492.76 566.42 539.42 566.42 624.09 566.42 624.09 504.61"/>
            </g>
          </g>
          <g>
            <rect class="uuid-752e57d1-5a0e-43ac-9060-37870c6f6068" x="253.43" y="576.23" width="164.67" height="12.73"/>
            <g>
              <rect class="uuid-8fce3db1-2131-4fb2-b6c8-5e74c8296149" x="269.04" y="447.12" width="132.26" height="119.29"/>
              <rect class="uuid-e7d3855e-546d-4177-9f71-46fc745c90a8" x="269.96" y="433.3" width="131.33" height="22.16"/>
              <line class="uuid-55ec5688-57da-412c-928d-01be98d0281a" x1="281.6" y1="444.38" x2="354.77" y2="444.38"/>
              <circle class="uuid-8fce3db1-2131-4fb2-b6c8-5e74c8296149" cx="380.07" cy="444.38" r="2.75"/>
              <circle class="uuid-8fce3db1-2131-4fb2-b6c8-5e74c8296149" cx="388.32" cy="444.38" r="2.75"/>
              <polygon class="uuid-03973505-b637-4a11-8180-152e90dfb953" points="401.29 504.61 401.29 433.3 269.96 433.3 269.96 566.42 316.62 566.42 401.29 566.42 401.29 504.61"/>
            </g>
          </g>
          <g>
            <ellipse class="uuid-752e57d1-5a0e-43ac-9060-37870c6f6068" cx="409.71" cy="769.02" rx="136.8" ry="4.24"/>
            <rect class="uuid-c4b50436-3d38-40c6-98bf-082d336573a9" x="401.77" y="653.39" width="96.51" height="96.51"/>
            <polygon points="498.28 707.15 401.77 722.71 401.77 653.39 498.28 653.39 498.28 707.15"/>
            <rect class="uuid-752e57d1-5a0e-43ac-9060-37870c6f6068" x="197.23" y="381.08" width="506.82" height="320.5"/>
            <rect class="uuid-8fce3db1-2131-4fb2-b6c8-5e74c8296149" x="302.53" y="300.06" width="296.22" height="482.54" transform="translate(991.97 90.7) rotate(90)"/>
            <line class="uuid-4c153a56-73b6-4408-bba8-15cc6903a602" x1="276.56" y1="453.34" x2="396.96" y2="453.34"/>
            <g>
              <rect class="uuid-b7ac5aa1-ec67-4d23-aa94-24e5d8798fa9" x="256.94" y="450.32" width="377.68" height="209.57"/>
              <g>
                <rect class="uuid-c424ff86-8398-4f8e-96b8-8b460869292d" x="266.66" y="440.6" width="377.68" height="209.57"/>
                <rect class="uuid-752e57d1-5a0e-43ac-9060-37870c6f6068" x="266.66" y="440.6" width="377.68" height="42.1"/>
                <line class="uuid-4c153a56-73b6-4408-bba8-15cc6903a602" x1="287.76" y1="461.55" x2="443.8" y2="461.55"/>
                <g>
                  <circle class="uuid-8fce3db1-2131-4fb2-b6c8-5e74c8296149" cx="593.11" cy="461.55" r="6.16"/>
                  <circle class="uuid-8fce3db1-2131-4fb2-b6c8-5e74c8296149" cx="617.45" cy="461.55" r="6.16"/>
                </g>
              </g>
            </g>
            <polygon class="uuid-8fce3db1-2131-4fb2-b6c8-5e74c8296149" points="356.77 752.05 401.77 740.39 499.12 740.39 545.72 752.05 356.77 752.05"/>
            <path class="uuid-91e63d09-61ea-4114-91e0-f13c5b57ab2d" d="M209.37,393.22s8.58,296.22,482.54,296.22H209.37V393.22Z"/>
            <path d="M209.37,397.45h470.17s8.41-.27,8.41,8.59v283.41h3.97V393.22H209.37v4.22Z"/>
            <rect class="uuid-c4b50436-3d38-40c6-98bf-082d336573a9" x="356.77" y="752.05" width="188.95" height="16.97"/>
            <line class="uuid-1b7226eb-0532-492d-a20a-8cd183009277" x1="356.77" y1="753.57" x2="545.72" y2="753.57"/>
            <g>
              <polygon class="uuid-b4dc5b13-460c-4d40-bb82-6480ade23796" points="485.38 569.37 469.66 560.29 448.19 563.61 442.44 576.01 458.16 585.08 479.62 581.76 485.38 569.37"/>
              <polygon class="uuid-752e57d1-5a0e-43ac-9060-37870c6f6068" points="485.38 557.16 469.66 548.09 448.19 551.41 442.44 563.81 458.16 572.88 479.62 569.56 485.38 557.16"/>
              <polygon class="uuid-b4dc5b13-460c-4d40-bb82-6480ade23796" points="485.38 544.96 469.66 535.89 448.19 539.21 442.44 551.61 458.16 560.68 479.62 557.36 485.38 544.96"/>
            </g>
            <g>
              <rect class="uuid-8fce3db1-2131-4fb2-b6c8-5e74c8296149" x="555.2" y="543.03" width="47.04" height="42.43"/>
              <rect class="uuid-752e57d1-5a0e-43ac-9060-37870c6f6068" x="555.53" y="538.11" width="46.71" height="7.88"/>
              <line class="uuid-f521dc4a-9a61-41bf-9bb2-a70426667c44" x1="559.67" y1="542.05" x2="585.69" y2="542.05"/>
              <circle class="uuid-8fce3db1-2131-4fb2-b6c8-5e74c8296149" cx="594.69" cy="542.05" r=".98"/>
              <circle class="uuid-8fce3db1-2131-4fb2-b6c8-5e74c8296149" cx="597.62" cy="542.05" r=".98"/>
              <polygon class="uuid-2ad21900-97ff-481e-b993-914528432e06" points="602.23 563.48 602.23 538.11 555.53 538.11 555.53 585.46 572.12 585.46 602.23 585.46 602.23 563.48"/>
            </g>
            <line class="uuid-01a2b0c4-c253-4756-863c-9b2537f515e6" x1="360.09" y1="566.15" x2="453.93" y2="566.15"/>
            <line class="uuid-01a2b0c4-c253-4756-863c-9b2537f515e6" x1="485.1" y1="566.15" x2="550.65" y2="566.15"/>
            <path class="uuid-8fce3db1-2131-4fb2-b6c8-5e74c8296149" d="M390.31,576.43c0-4.99-4.04-9.03-9.03-9.03-.11,0-.22,0-.33,0-1.07-6.68-6.72-11.84-13.64-12.14-2.83-9.91-11.95-17.16-22.76-17.16-12.3,0-22.41,9.38-23.56,21.38-.04,0-.08,0-.12,0-7.17,0-12.98,5.81-12.98,12.98s5.77,12.94,12.91,12.98h60.63c4.92-.08,8.88-4.09,8.88-9.03Z"/>
          </g>
          <path class="uuid-51a840ca-3379-486a-bf3e-d8edd18550ff" d="M197.23,479.59H106.05c-9.52,0-17.23-7.71-17.23-17.23V198.67c0-9.77,7.92-17.68,17.68-17.68h219.06c9.52,0,17.23-7.71,17.23-17.23v-6.12"/>
        </g>
      </g>
    </g>
  </g>
</svg>